<svg width="273" height="15" viewBox="0 0 273 15" fill="none" xmlns="http://www.w3.org/2000/svg">
<path d="M5.39024 1.032C6.59424 1.032 7.58824 1.33067 8.37224 1.928C9.15624 2.516 9.69758 3.32333 9.99624 4.35H8.65224C8.40024 3.69667 7.99424 3.17867 7.43424 2.796C6.87424 2.404 6.18824 2.208 5.37624 2.208C4.73224 2.208 4.15358 2.36667 3.64024 2.684C3.13624 2.992 2.73491 3.44 2.43624 4.028C2.14691 4.60667 2.00224 5.288 2.00224 6.072C2.00224 6.84667 2.14691 7.52333 2.43624 8.102C2.73491 8.68067 3.13624 9.12867 3.64024 9.446C4.15358 9.754 4.73224 9.908 5.37624 9.908C6.18824 9.908 6.87424 9.71667 7.43424 9.334C7.99424 8.942 8.40024 8.41933 8.65224 7.766H9.99624C9.69758 8.79267 9.15624 9.60467 8.37224 10.202C7.58824 10.79 6.59424 11.084 5.39024 11.084C4.46624 11.084 3.64958 10.874 2.94024 10.454C2.23091 10.0247 1.67558 9.432 1.27424 8.676C0.882244 7.91067 0.686244 7.04267 0.686244 6.072C0.686244 5.092 0.882244 4.21933 1.27424 3.454C1.67558 2.68867 2.23091 2.096 2.94024 1.676C3.64958 1.24667 4.46624 1.032 5.39024 1.032ZM15.186 3.216C15.9233 3.216 16.5813 3.37467 17.16 3.692C17.748 4.00933 18.2053 4.46667 18.532 5.064C18.868 5.66133 19.036 6.36133 19.036 7.164C19.036 7.96667 18.868 8.66667 18.532 9.264C18.2053 9.852 17.748 10.3047 17.16 10.622C16.5813 10.9393 15.9233 11.098 15.186 11.098C14.4486 11.098 13.786 10.9393 13.198 10.622C12.6193 10.3047 12.162 9.852 11.826 9.264C11.49 8.66667 11.322 7.96667 11.322 7.164C11.322 6.36133 11.49 5.66133 11.826 5.064C12.162 4.46667 12.6193 4.00933 13.198 3.692C13.786 3.37467 14.4486 3.216 15.186 3.216ZM15.186 4.336C14.7286 4.336 14.304 4.43867 13.912 4.644C13.5293 4.84933 13.2166 5.16667 12.974 5.596C12.7406 6.016 12.624 6.53867 12.624 7.164C12.624 7.78 12.7406 8.30267 12.974 8.732C13.2166 9.152 13.5293 9.46467 13.912 9.67C14.304 9.87533 14.7286 9.978 15.186 9.978C15.6433 9.978 16.0633 9.87533 16.446 9.67C16.838 9.46467 17.1506 9.152 17.384 8.732C17.6266 8.30267 17.748 7.78 17.748 7.164C17.748 6.53867 17.6266 6.016 17.384 5.596C17.1506 5.16667 16.838 4.84933 16.446 4.644C16.0633 4.43867 15.6433 4.336 15.186 4.336ZM24.9381 3.216C25.6194 3.216 26.2261 3.37467 26.7581 3.692C27.2901 4.00933 27.7054 4.46667 28.0041 5.064C28.3121 5.66133 28.4661 6.36133 28.4661 7.164C28.4661 7.96667 28.3121 8.66667 28.0041 9.264C27.7054 9.852 27.2901 10.3047 26.7581 10.622C26.2261 10.9393 25.6194 11.098 24.9381 11.098C24.1914 11.098 23.5567 10.9113 23.0341 10.538C22.5207 10.1553 22.1661 9.656 21.9701 9.04V14.64H20.6961V3.314H21.9701V5.274C22.1661 4.658 22.5207 4.16333 23.0341 3.79C23.5567 3.40733 24.1914 3.216 24.9381 3.216ZM24.5741 4.35C24.0794 4.35 23.6314 4.46667 23.2301 4.7C22.8287 4.924 22.5161 5.25067 22.2921 5.68C22.0681 6.10933 21.9561 6.604 21.9561 7.164C21.9561 7.724 22.0681 8.21867 22.2921 8.648C22.5161 9.068 22.8287 9.39467 23.2301 9.628C23.6314 9.86133 24.0794 9.978 24.5741 9.978C25.3674 9.978 25.9974 9.73067 26.4641 9.236C26.9401 8.732 27.1781 8.04133 27.1781 7.164C27.1781 6.28667 26.9401 5.60067 26.4641 5.106C25.9974 4.602 25.3674 4.35 24.5741 4.35ZM30.6617 3.314L33.1537 9.362L35.4637 3.314H36.8777L32.3137 14.64H30.8717L32.4677 10.874L29.2337 3.314H30.6617ZM39.3197 4.868C39.5717 4.336 39.9403 3.92533 40.4257 3.636C40.911 3.33733 41.4897 3.188 42.1617 3.188V4.574H41.7697C41.051 4.574 40.463 4.76067 40.0057 5.134C39.5483 5.498 39.3197 6.10467 39.3197 6.954V11H38.0457V3.314H39.3197V4.868ZM43.1947 1.06C43.1947 0.826666 43.2741 0.64 43.4327 0.499999C43.5914 0.350666 43.8014 0.276 44.0627 0.276C44.3241 0.276 44.5341 0.350666 44.6927 0.499999C44.8514 0.64 44.9307 0.826666 44.9307 1.06C44.9307 1.29333 44.8514 1.48467 44.6927 1.634C44.5341 1.774 44.3241 1.844 44.0627 1.844C43.8014 1.844 43.5914 1.774 43.4327 1.634C43.2741 1.48467 43.1947 1.29333 43.1947 1.06ZM44.6927 3.314V11H43.4187V3.314H44.6927ZM49.891 3.216C50.6377 3.216 51.2677 3.40267 51.781 3.776C52.3037 4.14933 52.6677 4.64867 52.873 5.274V3.314H54.147V11.126C54.147 11.8353 53.9977 12.4653 53.699 13.016C53.4003 13.5667 52.9803 13.996 52.439 14.304C51.8977 14.612 51.2677 14.766 50.549 14.766C49.513 14.766 48.6683 14.514 48.015 14.01C47.3617 13.5153 46.9463 12.8433 46.769 11.994H48.029C48.1783 12.5073 48.4583 12.9087 48.869 13.198C49.289 13.4967 49.8257 13.646 50.479 13.646C51.1697 13.646 51.739 13.422 52.187 12.974C52.6443 12.5353 52.873 11.9193 52.873 11.126V9.04C52.6677 9.66533 52.3037 10.1647 51.781 10.538C51.2677 10.9113 50.6377 11.098 49.891 11.098C49.2097 11.098 48.603 10.9393 48.071 10.622C47.539 10.3047 47.119 9.852 46.811 9.264C46.5123 8.66667 46.363 7.96667 46.363 7.164C46.363 6.36133 46.5123 5.66133 46.811 5.064C47.119 4.46667 47.539 4.00933 48.071 3.692C48.603 3.37467 49.2097 3.216 49.891 3.216ZM50.255 4.35C49.471 4.35 48.841 4.602 48.365 5.106C47.8983 5.60067 47.665 6.28667 47.665 7.164C47.665 8.04133 47.8983 8.732 48.365 9.236C48.841 9.73067 49.471 9.978 50.255 9.978C50.759 9.978 51.207 9.86133 51.599 9.628C52.0003 9.39467 52.313 9.068 52.537 8.648C52.761 8.21867 52.873 7.724 52.873 7.164C52.873 6.604 52.761 6.10933 52.537 5.68C52.313 5.25067 52.0003 4.924 51.599 4.7C51.207 4.46667 50.759 4.35 50.255 4.35ZM60.2206 3.188C61.1166 3.188 61.8399 3.47733 62.3906 4.056C62.9413 4.62533 63.2166 5.45133 63.2166 6.534V11H61.9426V6.646C61.9426 5.88067 61.7466 5.29267 61.3546 4.882C60.9626 4.47133 60.4306 4.266 59.7586 4.266C59.0586 4.266 58.4986 4.49467 58.0786 4.952C57.6586 5.4 57.4486 6.058 57.4486 6.926V11H56.1746V0.64H57.4486V5.134C57.6446 4.50867 57.9899 4.028 58.4846 3.692C58.9886 3.356 59.5673 3.188 60.2206 3.188ZM68.8387 9.88V11H67.8867C67.1027 11 66.5147 10.8133 66.1227 10.44C65.74 10.0667 65.5487 9.44133 65.5487 8.564V4.42H64.4007V3.314H65.5487V1.396H66.8367V3.314H68.8247V4.42H66.8367V8.592C66.8367 9.08667 66.9253 9.42733 67.1027 9.614C67.2893 9.79133 67.6067 9.88 68.0547 9.88H68.8387ZM73.4183 10.02C75.005 8.956 76.2743 7.90133 77.2263 6.856C78.1783 5.80133 78.6543 4.82133 78.6543 3.916C78.6543 3.356 78.5097 2.908 78.2203 2.572C77.9403 2.22667 77.483 2.054 76.8483 2.054C76.195 2.054 75.7003 2.264 75.3643 2.684C75.0283 3.09467 74.8417 3.664 74.8043 4.392H73.5443C73.6097 3.29067 73.9503 2.446 74.5663 1.858C75.1823 1.26067 75.9757 0.962 76.9463 0.962C77.8703 0.962 78.603 1.20933 79.1443 1.704C79.6857 2.19867 79.9563 2.89867 79.9563 3.804C79.9563 4.55067 79.7137 5.31133 79.2283 6.086C78.7523 6.85133 78.1503 7.56533 77.4223 8.228C76.7037 8.88133 75.9617 9.43667 75.1963 9.894H80.2083V10.944H73.4183V10.02ZM81.5717 6.002C81.5717 7.58867 81.833 8.82533 82.3557 9.712C82.8783 10.5987 83.7837 11.042 85.0717 11.042C86.3597 11.042 87.265 10.5987 87.7877 9.712C88.3197 8.82533 88.5857 7.58867 88.5857 6.002C88.5857 4.434 88.3197 3.20667 87.7877 2.32C87.265 1.43333 86.3597 0.99 85.0717 0.99C83.7837 0.99 82.8783 1.43333 82.3557 2.32C81.833 3.19733 81.5717 4.42467 81.5717 6.002ZM87.3257 6.002C87.3257 6.814 87.265 7.49533 87.1437 8.046C87.0317 8.58733 86.8123 9.02133 86.4857 9.348C86.159 9.67467 85.6877 9.838 85.0717 9.838C84.465 9.838 83.9983 9.67467 83.6717 9.348C83.345 9.02133 83.121 8.58733 82.9997 8.046C82.8877 7.49533 82.8317 6.814 82.8317 6.002C82.8317 5.19933 82.8877 4.52733 82.9997 3.986C83.121 3.44467 83.345 3.01533 83.6717 2.698C83.9983 2.37133 84.465 2.208 85.0717 2.208C85.6877 2.208 86.159 2.37133 86.4857 2.698C86.8123 3.01533 87.0317 3.44467 87.1437 3.986C87.265 4.52733 87.3257 5.19933 87.3257 6.002ZM89.9613 10.02C91.548 8.956 92.8173 7.90133 93.7693 6.856C94.7213 5.80133 95.1973 4.82133 95.1973 3.916C95.1973 3.356 95.0526 2.908 94.7633 2.572C94.4833 2.22667 94.026 2.054 93.3913 2.054C92.738 2.054 92.2433 2.264 91.9073 2.684C91.5713 3.09467 91.3846 3.664 91.3473 4.392H90.0873C90.1526 3.29067 90.4933 2.446 91.1093 1.858C91.7253 1.26067 92.5186 0.962 93.4893 0.962C94.4133 0.962 95.146 1.20933 95.6873 1.704C96.2286 2.19867 96.4993 2.89867 96.4993 3.804C96.4993 4.55067 96.2566 5.31133 95.7713 6.086C95.2953 6.85133 94.6933 7.56533 93.9653 8.228C93.2466 8.88133 92.5046 9.43667 91.7393 9.894H96.7513V10.944H89.9613V10.02ZM98.1147 6.002C98.1147 7.58867 98.376 8.82533 98.8987 9.712C99.4213 10.5987 100.327 11.042 101.615 11.042C102.903 11.042 103.808 10.5987 104.331 9.712C104.863 8.82533 105.129 7.58867 105.129 6.002C105.129 4.434 104.863 3.20667 104.331 2.32C103.808 1.43333 102.903 0.99 101.615 0.99C100.327 0.99 99.4213 1.43333 98.8987 2.32C98.376 3.19733 98.1147 4.42467 98.1147 6.002ZM103.869 6.002C103.869 6.814 103.808 7.49533 103.687 8.046C103.575 8.58733 103.355 9.02133 103.029 9.348C102.702 9.67467 102.231 9.838 101.615 9.838C101.008 9.838 100.541 9.67467 100.215 9.348C99.888 9.02133 99.664 8.58733 99.5427 8.046C99.4307 7.49533 99.3747 6.814 99.3747 6.002C99.3747 5.19933 99.4307 4.52733 99.5427 3.986C99.664 3.44467 99.888 3.01533 100.215 2.698C100.541 2.37133 101.008 2.208 101.615 2.208C102.231 2.208 102.702 2.37133 103.029 2.698C103.355 3.01533 103.575 3.44467 103.687 3.986C103.808 4.52733 103.869 5.19933 103.869 6.002ZM107.876 9.502V11H106.336V9.502H107.876ZM112.733 3.216C113.713 3.216 114.525 3.47733 115.169 4C115.813 4.52267 116.21 5.22267 116.359 6.1H115.015C114.922 5.54933 114.665 5.12 114.245 4.812C113.834 4.49467 113.321 4.336 112.705 4.336C112.257 4.336 111.846 4.43867 111.473 4.644C111.109 4.84933 110.815 5.16667 110.591 5.596C110.367 6.016 110.255 6.53867 110.255 7.164C110.255 7.78933 110.367 8.31667 110.591 8.746C110.815 9.166 111.109 9.47867 111.473 9.684C111.846 9.88933 112.257 9.992 112.705 9.992C113.321 9.992 113.834 9.83333 114.245 9.516C114.665 9.19867 114.922 8.76467 115.015 8.214H116.359C116.21 9.10067 115.813 9.80533 115.169 10.328C114.525 10.8413 113.713 11.098 112.733 11.098C111.996 11.098 111.342 10.9393 110.773 10.622C110.204 10.3047 109.756 9.852 109.429 9.264C109.112 8.66667 108.953 7.96667 108.953 7.164C108.953 6.36133 109.112 5.66133 109.429 5.064C109.756 4.46667 110.204 4.00933 110.773 3.692C111.342 3.37467 111.996 3.216 112.733 3.216ZM121.512 3.216C122.249 3.216 122.907 3.37467 123.486 3.692C124.074 4.00933 124.531 4.46667 124.858 5.064C125.194 5.66133 125.362 6.36133 125.362 7.164C125.362 7.96667 125.194 8.66667 124.858 9.264C124.531 9.852 124.074 10.3047 123.486 10.622C122.907 10.9393 122.249 11.098 121.512 11.098C120.775 11.098 120.112 10.9393 119.524 10.622C118.945 10.3047 118.488 9.852 118.152 9.264C117.816 8.66667 117.648 7.96667 117.648 7.164C117.648 6.36133 117.816 5.66133 118.152 5.064C118.488 4.46667 118.945 4.00933 119.524 3.692C120.112 3.37467 120.775 3.216 121.512 3.216ZM121.512 4.336C121.055 4.336 120.63 4.43867 120.238 4.644C119.855 4.84933 119.543 5.16667 119.3 5.596C119.067 6.016 118.95 6.53867 118.95 7.164C118.95 7.78 119.067 8.30267 119.3 8.732C119.543 9.152 119.855 9.46467 120.238 9.67C120.63 9.87533 121.055 9.978 121.512 9.978C121.969 9.978 122.389 9.87533 122.772 9.67C123.164 9.46467 123.477 9.152 123.71 8.732C123.953 8.30267 124.074 7.78 124.074 7.164C124.074 6.53867 123.953 6.016 123.71 5.596C123.477 5.16667 123.164 4.84933 122.772 4.644C122.389 4.43867 121.969 4.336 121.512 4.336ZM136.472 3.188C137.368 3.188 138.087 3.47733 138.628 4.056C139.179 4.62533 139.454 5.45133 139.454 6.534V11H138.18V6.646C138.18 5.89 137.994 5.31133 137.62 4.91C137.256 4.50867 136.752 4.308 136.108 4.308C135.436 4.308 134.895 4.532 134.484 4.98C134.083 5.41867 133.882 6.06733 133.882 6.926V11H132.608V6.646C132.608 5.89 132.422 5.31133 132.048 4.91C131.675 4.50867 131.171 4.308 130.536 4.308C129.855 4.308 129.309 4.532 128.898 4.98C128.497 5.41867 128.296 6.06733 128.296 6.926V11H127.022V3.314H128.296V5.064C128.483 4.45733 128.814 3.99533 129.29 3.678C129.776 3.35133 130.331 3.188 130.956 3.188C131.61 3.188 132.174 3.356 132.65 3.692C133.136 4.01867 133.481 4.504 133.686 5.148C133.901 4.52267 134.26 4.042 134.764 3.706C135.268 3.36067 135.838 3.188 136.472 3.188ZM142.174 10.062C142.305 10.4727 142.37 10.8553 142.37 11.21C142.37 11.6953 142.249 12.0827 142.006 12.372C141.764 12.6707 141.4 12.82 140.914 12.82V12.274C141.148 12.274 141.316 12.2087 141.418 12.078C141.53 11.9567 141.586 11.7607 141.586 11.49V11.364H140.872V10.062H142.174ZM153.121 8.718H148.781L147.955 11H146.583L150.237 1.312H151.679L155.319 11H153.947L153.121 8.718ZM152.757 7.724L150.951 2.74L149.145 7.724H152.757ZM157.882 0.64V11H156.608V0.64H157.882ZM161.204 0.64V11H159.93V0.64H161.204ZM167.986 4.868C168.238 4.336 168.606 3.92533 169.092 3.636C169.577 3.33733 170.156 3.188 170.828 3.188V4.574H170.436C169.717 4.574 169.129 4.76067 168.672 5.134C168.214 5.498 167.986 6.10467 167.986 6.954V11H166.712V3.314H167.986V4.868ZM171.861 1.06C171.861 0.826666 171.94 0.64 172.099 0.499999C172.257 0.350666 172.467 0.276 172.729 0.276C172.99 0.276 173.2 0.350666 173.359 0.499999C173.517 0.64 173.597 0.826666 173.597 1.06C173.597 1.29333 173.517 1.48467 173.359 1.634C173.2 1.774 172.99 1.844 172.729 1.844C172.467 1.844 172.257 1.774 172.099 1.634C171.94 1.48467 171.861 1.29333 171.861 1.06ZM173.359 3.314V11H172.085V3.314H173.359ZM178.557 3.216C179.304 3.216 179.934 3.40267 180.447 3.776C180.97 4.14933 181.334 4.64867 181.539 5.274V3.314H182.813V11.126C182.813 11.8353 182.664 12.4653 182.365 13.016C182.066 13.5667 181.646 13.996 181.105 14.304C180.564 14.612 179.934 14.766 179.215 14.766C178.179 14.766 177.334 14.514 176.681 14.01C176.028 13.5153 175.612 12.8433 175.435 11.994H176.695C176.844 12.5073 177.124 12.9087 177.535 13.198C177.955 13.4967 178.492 13.646 179.145 13.646C179.836 13.646 180.405 13.422 180.853 12.974C181.31 12.5353 181.539 11.9193 181.539 11.126V9.04C181.334 9.66533 180.97 10.1647 180.447 10.538C179.934 10.9113 179.304 11.098 178.557 11.098C177.876 11.098 177.269 10.9393 176.737 10.622C176.205 10.3047 175.785 9.852 175.477 9.264C175.178 8.66667 175.029 7.96667 175.029 7.164C175.029 6.36133 175.178 5.66133 175.477 5.064C175.785 4.46667 176.205 4.00933 176.737 3.692C177.269 3.37467 177.876 3.216 178.557 3.216ZM178.921 4.35C178.137 4.35 177.507 4.602 177.031 5.106C176.564 5.60067 176.331 6.28667 176.331 7.164C176.331 8.04133 176.564 8.732 177.031 9.236C177.507 9.73067 178.137 9.978 178.921 9.978C179.425 9.978 179.873 9.86133 180.265 9.628C180.666 9.39467 180.979 9.068 181.203 8.648C181.427 8.21867 181.539 7.724 181.539 7.164C181.539 6.604 181.427 6.10933 181.203 5.68C180.979 5.25067 180.666 4.924 180.265 4.7C179.873 4.46667 179.425 4.35 178.921 4.35ZM188.887 3.188C189.783 3.188 190.506 3.47733 191.057 4.056C191.607 4.62533 191.883 5.45133 191.883 6.534V11H190.609V6.646C190.609 5.88067 190.413 5.29267 190.021 4.882C189.629 4.47133 189.097 4.266 188.425 4.266C187.725 4.266 187.165 4.49467 186.745 4.952C186.325 5.4 186.115 6.058 186.115 6.926V11H184.841V0.64H186.115V5.134C186.311 4.50867 186.656 4.028 187.151 3.692C187.655 3.356 188.233 3.188 188.887 3.188ZM197.505 9.88V11H196.553C195.769 11 195.181 10.8133 194.789 10.44C194.406 10.0667 194.215 9.44133 194.215 8.564V4.42H193.067V3.314H194.215V1.396H195.503V3.314H197.491V4.42H195.503V8.592C195.503 9.08667 195.591 9.42733 195.769 9.614C195.955 9.79133 196.273 9.88 196.721 9.88H197.505ZM201.467 3.216C202.335 3.216 203.031 3.44467 203.553 3.902C204.085 4.35 204.407 4.95667 204.519 5.722H203.301C203.245 5.26467 203.054 4.89133 202.727 4.602C202.41 4.30333 201.981 4.154 201.439 4.154C200.982 4.154 200.623 4.266 200.361 4.49C200.109 4.70467 199.983 4.99867 199.983 5.372C199.983 5.652 200.067 5.88067 200.235 6.058C200.413 6.226 200.627 6.35667 200.879 6.45C201.141 6.534 201.495 6.62733 201.943 6.73C202.513 6.86067 202.97 6.996 203.315 7.136C203.67 7.26667 203.969 7.48133 204.211 7.78C204.463 8.07867 204.589 8.48 204.589 8.984C204.589 9.60933 204.351 10.118 203.875 10.51C203.409 10.902 202.783 11.098 201.999 11.098C201.085 11.098 200.338 10.8787 199.759 10.44C199.181 10.0013 198.84 9.39 198.737 8.606H199.969C200.016 9.07267 200.217 9.45067 200.571 9.74C200.935 10.0293 201.411 10.174 201.999 10.174C202.438 10.174 202.779 10.062 203.021 9.838C203.273 9.614 203.399 9.32 203.399 8.956C203.399 8.65733 203.311 8.41933 203.133 8.242C202.956 8.06467 202.737 7.92933 202.475 7.836C202.214 7.74267 201.855 7.64467 201.397 7.542C200.828 7.41133 200.371 7.28067 200.025 7.15C199.689 7.01933 199.4 6.814 199.157 6.534C198.924 6.24467 198.807 5.85733 198.807 5.372C198.807 4.728 199.045 4.21 199.521 3.818C199.997 3.41667 200.646 3.216 201.467 3.216ZM211.025 4.868C211.277 4.336 211.645 3.92533 212.131 3.636C212.616 3.33733 213.195 3.188 213.867 3.188V4.574H213.475C212.756 4.574 212.168 4.76067 211.711 5.134C211.253 5.498 211.025 6.10467 211.025 6.954V11H209.751V3.314H211.025V4.868ZM222.194 6.73C222.194 7.00067 222.175 7.234 222.138 7.43H215.992C216.02 8.30733 216.267 8.96533 216.734 9.404C217.21 9.84267 217.788 10.062 218.47 10.062C219.086 10.062 219.599 9.908 220.01 9.6C220.43 9.28267 220.686 8.86267 220.78 8.34H222.138C222.044 8.872 221.834 9.348 221.508 9.768C221.19 10.188 220.775 10.5147 220.262 10.748C219.748 10.9813 219.17 11.098 218.526 11.098C217.788 11.098 217.135 10.9393 216.566 10.622C215.996 10.3047 215.548 9.852 215.222 9.264C214.904 8.66667 214.746 7.96667 214.746 7.164C214.746 6.36133 214.904 5.66133 215.222 5.064C215.548 4.46667 215.996 4.00933 216.566 3.692C217.135 3.37467 217.788 3.216 218.526 3.216C219.272 3.216 219.921 3.37467 220.472 3.692C221.032 4.00933 221.456 4.434 221.746 4.966C222.044 5.498 222.194 6.086 222.194 6.73ZM220.906 6.814C220.934 6.24467 220.84 5.76867 220.626 5.386C220.411 5.00333 220.117 4.71867 219.744 4.532C219.37 4.34533 218.964 4.252 218.526 4.252C217.826 4.252 217.238 4.47133 216.762 4.91C216.286 5.33933 216.029 5.974 215.992 6.814H220.906ZM226.268 3.216C227.136 3.216 227.831 3.44467 228.354 3.902C228.886 4.35 229.208 4.95667 229.32 5.722H228.102C228.046 5.26467 227.855 4.89133 227.528 4.602C227.211 4.30333 226.781 4.154 226.24 4.154C225.783 4.154 225.423 4.266 225.162 4.49C224.91 4.70467 224.784 4.99867 224.784 5.372C224.784 5.652 224.868 5.88067 225.036 6.058C225.213 6.226 225.428 6.35667 225.68 6.45C225.941 6.534 226.296 6.62733 226.744 6.73C227.313 6.86067 227.771 6.996 228.116 7.136C228.471 7.26667 228.769 7.48133 229.012 7.78C229.264 8.07867 229.39 8.48 229.39 8.984C229.39 9.60933 229.152 10.118 228.676 10.51C228.209 10.902 227.584 11.098 226.8 11.098C225.885 11.098 225.139 10.8787 224.56 10.44C223.981 10.0013 223.641 9.39 223.538 8.606H224.77C224.817 9.07267 225.017 9.45067 225.372 9.74C225.736 10.0293 226.212 10.174 226.8 10.174C227.239 10.174 227.579 10.062 227.822 9.838C228.074 9.614 228.2 9.32 228.2 8.956C228.2 8.65733 228.111 8.41933 227.934 8.242C227.757 8.06467 227.537 7.92933 227.276 7.836C227.015 7.74267 226.655 7.64467 226.198 7.542C225.629 7.41133 225.171 7.28067 224.826 7.15C224.49 7.01933 224.201 6.814 223.958 6.534C223.725 6.24467 223.608 5.85733 223.608 5.372C223.608 4.728 223.846 4.21 224.322 3.818C224.798 3.41667 225.447 3.216 226.268 3.216ZM238.163 6.73C238.163 7.00067 238.144 7.234 238.107 7.43H231.961C231.989 8.30733 232.236 8.96533 232.703 9.404C233.179 9.84267 233.757 10.062 234.439 10.062C235.055 10.062 235.568 9.908 235.979 9.6C236.399 9.28267 236.655 8.86267 236.749 8.34H238.107C238.013 8.872 237.803 9.348 237.477 9.768C237.159 10.188 236.744 10.5147 236.231 10.748C235.717 10.9813 235.139 11.098 234.495 11.098C233.757 11.098 233.104 10.9393 232.535 10.622C231.965 10.3047 231.517 9.852 231.191 9.264C230.873 8.66667 230.715 7.96667 230.715 7.164C230.715 6.36133 230.873 5.66133 231.191 5.064C231.517 4.46667 231.965 4.00933 232.535 3.692C233.104 3.37467 233.757 3.216 234.495 3.216C235.241 3.216 235.89 3.37467 236.441 3.692C237.001 4.00933 237.425 4.434 237.715 4.966C238.013 5.498 238.163 6.086 238.163 6.73ZM236.875 6.814C236.903 6.24467 236.809 5.76867 236.595 5.386C236.38 5.00333 236.086 4.71867 235.713 4.532C235.339 4.34533 234.933 4.252 234.495 4.252C233.795 4.252 233.207 4.47133 232.731 4.91C232.255 5.33933 231.998 5.974 231.961 6.814H236.875ZM241.103 4.868C241.355 4.336 241.724 3.92533 242.209 3.636C242.694 3.33733 243.273 3.188 243.945 3.188V4.574H243.553C242.834 4.574 242.246 4.76067 241.789 5.134C241.332 5.498 241.103 6.10467 241.103 6.954V11H239.829V3.314H241.103V4.868ZM248.184 9.642L250.564 3.314H251.936L248.926 11H247.414L244.404 3.314H245.776L248.184 9.642ZM260.256 6.73C260.256 7.00067 260.238 7.234 260.2 7.43H254.054C254.082 8.30733 254.33 8.96533 254.796 9.404C255.272 9.84267 255.851 10.062 256.532 10.062C257.148 10.062 257.662 9.908 258.072 9.6C258.492 9.28267 258.749 8.86267 258.842 8.34H260.2C260.107 8.872 259.897 9.348 259.57 9.768C259.253 10.188 258.838 10.5147 258.324 10.748C257.811 10.9813 257.232 11.098 256.588 11.098C255.851 11.098 255.198 10.9393 254.628 10.622C254.059 10.3047 253.611 9.852 253.284 9.264C252.967 8.66667 252.808 7.96667 252.808 7.164C252.808 6.36133 252.967 5.66133 253.284 5.064C253.611 4.46667 254.059 4.00933 254.628 3.692C255.198 3.37467 255.851 3.216 256.588 3.216C257.335 3.216 257.984 3.37467 258.534 3.692C259.094 4.00933 259.519 4.434 259.808 4.966C260.107 5.498 260.256 6.086 260.256 6.73ZM258.968 6.814C258.996 6.24467 258.903 5.76867 258.688 5.386C258.474 5.00333 258.18 4.71867 257.806 4.532C257.433 4.34533 257.027 4.252 256.588 4.252C255.888 4.252 255.3 4.47133 254.824 4.91C254.348 5.33933 254.092 5.974 254.054 6.814H258.968ZM265.073 3.216C265.819 3.216 266.449 3.40267 266.963 3.776C267.485 4.14933 267.849 4.64867 268.055 5.274V0.64H269.329V11H268.055V9.04C267.849 9.66533 267.485 10.1647 266.963 10.538C266.449 10.9113 265.819 11.098 265.073 11.098C264.391 11.098 263.785 10.9393 263.253 10.622C262.721 10.3047 262.301 9.852 261.993 9.264C261.694 8.66667 261.545 7.96667 261.545 7.164C261.545 6.36133 261.694 5.66133 261.993 5.064C262.301 4.46667 262.721 4.00933 263.253 3.692C263.785 3.37467 264.391 3.216 265.073 3.216ZM265.437 4.35C264.653 4.35 264.023 4.602 263.547 5.106C263.08 5.60067 262.847 6.28667 262.847 7.164C262.847 8.04133 263.08 8.732 263.547 9.236C264.023 9.73067 264.653 9.978 265.437 9.978C265.941 9.978 266.389 9.86133 266.781 9.628C267.182 9.39467 267.495 9.068 267.719 8.648C267.943 8.21867 268.055 7.724 268.055 7.164C268.055 6.604 267.943 6.10933 267.719 5.68C267.495 5.25067 267.182 4.924 266.781 4.7C266.389 4.46667 265.941 4.35 265.437 4.35ZM272.294 9.502V11H270.754V9.502H272.294Z" fill="#C2C2C2"/>
</svg>
